<svg width="50" height="50" viewBox="0 0 50 50" fill="none" xmlns="http://www.w3.org/2000/svg">
<path d="M35.0975 35.8393C34.6392 35.7834 34.2258 36.1118 34.1725 36.5693C34.1192 37.0268 34.4458 37.4409 34.9025 37.4943C43.6658 38.5259 48.3333 41.3059 48.3333 42.9168C48.3333 45.1784 39.4567 48.3334 25 48.3334C10.5433 48.3334 1.66667 45.1784 1.66667 42.9168C1.66667 41.3059 6.33417 38.5259 15.0975 37.4943C15.5542 37.4409 15.8808 37.0259 15.8275 36.5693C15.7733 36.1118 15.36 35.7818 14.9025 35.8393C6.12833 36.8726 0 39.7826 0 42.9168C0 46.4368 8.5875 50.0001 25 50.0001C41.4125 50.0001 50 46.4368 50 42.9168C50 39.7826 43.8717 36.8726 35.0975 35.8393Z" fill="#3B64F5"/>
<path d="M24.8524 45.6308L37.6366 27.1667C42.4316 20.7742 41.7383 10.2667 36.1524 4.68167C33.1341 1.6625 29.1208 0 24.8524 0C20.5841 0 16.5708 1.6625 13.5524 4.68083C7.96661 10.2658 7.27328 20.7733 12.0491 27.1408L24.8524 45.6308ZM24.9999 10C28.2166 10 30.8333 12.6175 30.8333 15.8333C30.8333 19.0492 28.2166 21.6667 24.9999 21.6667C21.7833 21.6667 19.1666 19.0492 19.1666 15.8333C19.1666 12.6175 21.7833 10 24.9999 10Z" fill="#3B64F5"/>
</svg>
