<svg width="60" height="48" viewBox="0 0 60 48" fill="none" xmlns="http://www.w3.org/2000/svg">
<path d="M51.1637 25.7113V44.5635C51.1637 46.2441 49.7997 47.6081 48.1191 47.6081H11.8822C10.2016 47.6081 8.83762 46.2441 8.83762 44.5635V25.7113C8.83762 24.6609 9.37804 23.6836 10.2686 23.1295L28.3855 11.8142C29.372 11.1977 30.6263 11.1977 31.6113 11.8142L49.7282 23.1295C50.6218 23.6836 51.1637 24.6594 51.1637 25.7113ZM58.5712 17.296L31.6158 0.462399C30.6294 -0.154133 29.3765 -0.154133 28.3901 0.462399L1.43163 17.296C0.00522949 18.1866 -0.427104 20.0651 0.46192 21.4915C1.35094 22.9194 3.22642 23.3548 4.65738 22.4627L30.0007 6.63381L55.3409 22.4597C55.8433 22.7732 56.3989 22.9224 56.953 22.9224C57.9684 22.9224 58.9594 22.4155 59.5364 21.4899C60.4284 20.062 59.9946 18.1866 58.5712 17.296Z" fill="#3B64F5"/>
</svg>
