<svg width="46" height="46" viewBox="0 0 46 46" fill="none" xmlns="http://www.w3.org/2000/svg">
<path d="M45.2614 9.73248L37.6859 17.3081L31.0591 14.9408L28.6919 8.31418L36.2676 0.738531C31.2972 -0.924265 25.5938 0.220139 21.636 4.17811C17.7512 8.06287 16.5774 13.6288 18.1071 18.533C17.9012 18.6952 17.7015 18.8698 17.5115 19.0599L1.95284 34.6183C-0.650947 37.222 -0.650947 41.4434 1.95284 44.0472C4.55663 46.6509 8.7782 46.6509 11.382 44.0472L26.9406 28.4886C27.1307 28.2985 27.305 28.099 27.4673 27.893C32.3716 29.4227 37.9374 28.2488 41.8221 24.364C45.7798 20.4061 46.9243 14.703 45.2614 9.73248Z" fill="#3B64F5"/>
</svg>
