<svg width="20" height="20" viewBox="0 0 20 20" fill="none" xmlns="http://www.w3.org/2000/svg">
<path d="M1.9196 4.62369C2.1726 4.7941 2.93523 5.30025 4.20752 6.14185C5.47986 6.98346 6.45455 7.63147 7.13165 8.08594C7.20604 8.13575 7.36408 8.24404 7.60586 8.41095C7.84768 8.57797 8.0486 8.71294 8.20849 8.8159C8.36849 8.91881 8.56191 9.03426 8.78895 9.16207C9.01591 9.28976 9.22986 9.38581 9.43075 9.4494C9.63167 9.5135 9.81767 9.54526 9.98877 9.54526H9.99999H10.0112C10.1823 9.54526 10.3684 9.51346 10.5693 9.4494C10.7702 9.38581 10.9843 9.28965 11.2111 9.16207C11.438 9.03411 11.6314 8.91877 11.7914 8.8159C11.9514 8.71294 12.1521 8.57797 12.394 8.41095C12.6358 8.24389 12.794 8.13575 12.8684 8.08594C13.5528 7.63147 15.294 6.47728 18.0916 4.62346C18.6347 4.26139 19.0885 3.82451 19.453 3.3131C19.8178 2.80192 20 2.26567 20 1.70463C20 1.2358 19.8232 0.834479 19.4697 0.500695C19.1163 0.166836 18.6977 0 18.2142 0H1.78564C1.21276 0 0.771891 0.184636 0.463111 0.553906C0.15437 0.923252 0 1.38492 0 1.93886C0 2.38631 0.204681 2.87118 0.613846 3.39318C1.02297 3.91522 1.45837 4.32543 1.9196 4.62369Z" fill="white"/>
<path d="M18.8838 5.76277C16.4435 7.33938 14.5906 8.56466 13.3259 9.43835C12.9018 9.73654 12.5578 9.96931 12.2936 10.1361C12.0293 10.303 11.678 10.4735 11.2389 10.6474C10.8 10.8216 10.3909 10.9084 10.0114 10.9084H10H9.9888C9.60934 10.9084 9.20006 10.8216 8.76115 10.6474C8.32223 10.4735 7.97061 10.303 7.70647 10.1361C7.44241 9.96931 7.09826 9.73654 6.6742 9.43835C5.66968 8.73526 3.82075 7.50991 1.12734 5.76277C0.703129 5.49306 0.327387 5.1839 0 4.83594V13.2947C0 13.7638 0.174776 14.1649 0.524523 14.4987C0.874192 14.8326 1.29465 14.9995 1.78575 14.9995H18.2144C18.7053 14.9995 19.1258 14.8326 19.4755 14.4987C19.8253 14.1648 20 13.7638 20 13.2947V4.83594C19.68 5.1767 19.3081 5.48586 18.8838 5.76277Z" fill="white"/>
</svg>
