<svg width="40" height="40" viewBox="0 0 40 40" fill="none" xmlns="http://www.w3.org/2000/svg">
<path d="M39.1033 31.6381L32.9259 25.446C31.6955 24.2178 29.6579 24.2551 28.3846 25.5317L25.2724 28.6503C25.0758 28.5416 24.8723 28.4282 24.6583 28.3078C22.693 27.2164 20.0031 25.7205 17.1726 22.8815C14.3337 20.0365 12.8397 17.3364 11.7475 15.3653C11.6322 15.1565 11.5218 14.9552 11.4127 14.764L13.5014 12.6736L14.5283 11.6431C15.8036 10.3647 15.8387 8.32301 14.6112 7.09119L8.43382 0.898433C7.20627 -0.331664 5.16775 -0.294347 3.89252 0.984125L2.15152 2.73909L2.1991 2.78642C1.61532 3.53301 1.12749 4.39407 0.764469 5.32264C0.42983 6.20651 0.221485 7.04995 0.126219 7.89513C-0.689463 14.6726 2.40066 20.8668 10.7869 29.2721C22.3791 40.8898 31.721 40.0122 32.124 39.9693C33.0017 39.8642 33.8429 39.654 34.6978 39.3212C35.6162 38.9616 36.4748 38.4734 37.2192 37.8896L37.2572 37.9234L39.021 36.1924C40.2936 34.9142 40.3302 32.8719 39.1033 31.6381Z" fill="#3B64F5"/>
</svg>
