<svg width="60" height="60" viewBox="0 0 60 60" fill="none" xmlns="http://www.w3.org/2000/svg">
<g clip-path="url(#clip0)">
<path d="M25.894 39.9495L45.9272 50.5051V7.14844L25.894 17.704V39.9495Z" fill="#3B64F5"/>
<path d="M52.9634 27.0688H60.0001V30.5845H52.9634V27.0688Z" fill="#3B64F5"/>
<path d="M57.0446 15.7231L58.39 18.971L51.8883 21.6645L50.543 18.4162L57.0446 15.7231Z" fill="#3B64F5"/>
<path d="M57.0431 41.9303L50.5415 39.2373L51.8869 35.989L58.3885 38.682L57.0431 41.9303Z" fill="#3B64F5"/>
<path d="M22.3782 18.8594H7.03674V22.3777H6.44897C2.89307 22.3777 0 25.2708 0 28.8267C0 32.3826 2.89307 35.2757 6.44897 35.2757H7.03674V38.7945H10.9731L14.8434 52.884H26.2486L22.3782 39.3713V18.8594Z" fill="#3B64F5"/>
</g>
<defs>
<clipPath id="clip0">
<rect width="60" height="60" fill="white"/>
</clipPath>
</defs>
</svg>
